HIERARCHY
ROOT Hips
{
  OFFSET -27.3825 93.2414 -29.4013
  CHANNELS 6 Xposition Yposition Zposition Zrotation Xrotation Yrotation
  JOINT LeftUpLeg
  {
    OFFSET 9.63379 -0.250344 0
    CHANNELS 6 Xposition Yposition Zposition Zrotation Xrotation Yrotation
    JOINT LeftLeg
    {
      OFFSET 0 -40.4779 -1.71313
      CHANNELS 6 Xposition Yposition Zposition Zrotation Xrotation Yrotation
      JOINT LeftFoot
      {
        OFFSET 0.0126047 -40.4416 -0.864524
        CHANNELS 6 Xposition Yposition Zposition Zrotation Xrotation Yrotation
        JOINT LeftToeBase
        {
          OFFSET -0.183287 -12.1867 8.28226
          CHANNELS 6 Xposition Yposition Zposition Zrotation Xrotation Yrotation
          End Site
          {
            OFFSET 0 0 9.15615
          }
        }
      }
    }
  }
  JOINT RightUpLeg
  {
    OFFSET -9.63379 -0.250344 0
    CHANNELS 6 Xposition Yposition Zposition Zrotation Xrotation Yrotation
    JOINT RightLeg
    {
      OFFSET 0 -40.478 -1.71313
      CHANNELS 6 Xposition Yposition Zposition Zrotation Xrotation Yrotation
      JOINT RightFoot
      {
        OFFSET -0.0126047 -40.4414 -0.864524
        CHANNELS 6 Xposition Yposition Zposition Zrotation Xrotation Yrotation
        JOINT RightToeBase
        {
          OFFSET 0.183287 -12.1867 8.28226
          CHANNELS 6 Xposition Yposition Zposition Zrotation Xrotation Yrotation
          End Site
          {
            OFFSET 0.00319481 0 9.156
          }
        }
      }
    }
  }
  JOINT Spine
  {
    OFFSET 0 5.60909 -1.89659
    CHANNELS 6 Xposition Yposition Zposition Zrotation Xrotation Yrotation
    JOINT Spine1
    {
      OFFSET 0 6.56349 1.09934
      CHANNELS 6 Xposition Yposition Zposition Zrotation Xrotation Yrotation
      JOINT Spine2
      {
        OFFSET 0 7.57662 1.04304
        CHANNELS 6 Xposition Yposition Zposition Zrotation Xrotation Yrotation
        JOINT Spine3
        {
          OFFSET 0 8.29213 0.399731
          CHANNELS 6 Xposition Yposition Zposition Zrotation Xrotation Yrotation
          JOINT Spine4
          {
            OFFSET 0 8.9581 -0.526302
            CHANNELS 6 Xposition Yposition Zposition Zrotation Xrotation Yrotation
            JOINT Neck
            {
              OFFSET 0 18.4163 -4.35419
              CHANNELS 6 Xposition Yposition Zposition Zrotation Xrotation Yrotation
              JOINT Head
              {
                OFFSET 0 8.97127 1.78542
                CHANNELS 6 Xposition Yposition Zposition Zrotation Xrotation Yrotation
                End Site
                {
                  OFFSET 0 19.3737 0.971395
                }
              }
            }
            JOINT LeftShoulder
            {
              OFFSET 6.14423 15.3316 -3.79324
              CHANNELS 6 Xposition Yposition Zposition Zrotation Xrotation Yrotation
              JOINT LeftArm
              {
                OFFSET 9.01906 -1.11411 -1.79347
                CHANNELS 6 Xposition Yposition Zposition Zrotation Xrotation Yrotation
                JOINT LeftForeArm
                {
                  OFFSET 27.687 0 0
                  CHANNELS 6 Xposition Yposition Zposition Zrotation Xrotation Yrotation
                  JOINT LeftHand
                  {
                    OFFSET 27.8738 0 0
                    CHANNELS 6 Xposition Yposition Zposition Zrotation Xrotation Yrotation
                    End Site
                    {
                      OFFSET 0 0 0
                    }
                  }
                }
              }
            }
            JOINT RightShoulder
            {
              OFFSET -6.14423 15.3316 -3.79324
              CHANNELS 6 Xposition Yposition Zposition Zrotation Xrotation Yrotation
              JOINT RightArm
              {
                OFFSET -9.01884 -1.11411 -1.79347
                CHANNELS 6 Xposition Yposition Zposition Zrotation Xrotation Yrotation
                JOINT RightForeArm
                {
                  OFFSET -27.0381 0.00109999 0
                  CHANNELS 6 Xposition Yposition Zposition Zrotation Xrotation Yrotation
                  JOINT RightHand
                  {
                    OFFSET -28.5227 0 0
                    CHANNELS 6 Xposition Yposition Zposition Zrotation Xrotation Yrotation
                    End Site
                    {
                      OFFSET 0 0 0
                    }
                  }
                }
              }
            }
          }
        }
      }
    }
  }
}
MOTION
Frames:	8
Frame Time:	0.00833333
-41.0023 92.9062 108.144 -3.02407 5.268 -3.78492 9.63379 -0.250344 -7.15256e-007 6.15676 -31.1889 2.53143 0 -40.4779 -1.71313 4.51393 8.53238 -0.466226 0.0126047 -40.4416 -0.864524 0.15545 -9.39677 0.000236484 -0.183287 -12.1867 8.28226 1.22054e-011 -1.16919e-011 -1.75726e-013 -9.63379 -0.250344 -7.15256e-007 5.52072 -7.89315 9.50216 0 -40.478 -1.71313 10.3578 15.2147 -1.30798 -0.0126047 -40.4414 -0.864524 0.00680425 -4.0697 0.00203382 0.183287 -12.1867 8.28226 6.1401e-012 -2.95501e-011 2.02213e-011 -2.64698e-023 5.60909 -1.89659 2.17917 -0.58551 0.449056 0 6.56349 1.09934 -0.614241 -0.93756 -0.618725 0 7.57662 1.04304 -0.612552 -0.936581 -0.621819 0 8.29213 0.399731 -0.610916 -0.935545 -0.624924 0 8.9581 -0.526302 -0.609334 -0.934453 -0.628039 0 18.4163 -4.35419 -1.70749 12.3448 1.86223 1.05879e-022 8.97127 1.78542 3.80637 -0.920876 0.380098 6.14423 15.3316 -3.79324 -30.604 1.67056 -1.05163 9.01906 -1.11411 -1.79347 -49.7194 -2.75256 -18.9341 27.687 0 0 7.62931 31.0315 -1.62683e-010 27.8738 0 0 5.32325 -0.842851 -7.51227 -6.14423 15.3316 -3.79324 37.2703 2.82994 3.01036 -9.01884 -1.11411 -1.79347 38.5823 19.4064 16.5766 -27.0381 0.00109999 5.96046e-008 2.56235 19.0172 -0.00960333 -28.5227 0 0 -15.7574 -1.68523 2.83494 
-40.9555 92.8564 108.498 -3.04301 5.33564 -4.06901 9.63379 -0.250344 -7.15256e-007 6.18939 -31.4332 2.59138 0 -40.4779 -1.71313 4.40956 8.92102 -0.459759 0.0126047 -40.4416 -0.864524 0.150171 -9.72142 0.000280836 -0.183287 -12.1867 8.28226 1.22054e-011 -1.16919e-011 -1.75726e-013 -9.63379 -0.250344 -7.15256e-007 5.49072 -7.80759 9.52361 0 -40.478 -1.71313 10.3735 15.3936 -1.31013 -0.0126047 -40.4414 -0.864524 -0.000864366 -4.12543 0.00208113 0.183287 -12.1867 8.28226 6.1401e-012 -2.95501e-011 2.02213e-011 -2.64698e-023 5.60909 -1.89659 2.23099 -0.59938 0.466867 0 6.56349 1.09934 -0.611312 -0.95957 -0.618958 0 7.57662 1.04304 -0.609572 -0.95857 -0.622154 0 8.29213 0.399731 -0.607888 -0.957512 -0.625361 0 8.9581 -0.526302 -0.606259 -0.956397 -0.628579 0 18.4163 -4.35419 -1.62766 12.284 1.81818 1.05879e-022 8.97127 1.78542 3.7974 -0.927473 0.370317 6.14423 15.3316 -3.79324 -30.5625 1.65676 -1.01907 9.01906 -1.11411 -1.79347 -49.7775 -2.7866 -18.8594 27.687 0 0 7.649 31.063 -1.62737e-010 27.8738 0 0 5.31891 -0.841724 -7.48912 -6.14423 15.3316 -3.79324 37.2875 2.8277 3.00256 -9.01884 -1.11411 -1.79347 38.6249 19.2454 16.3117 -27.0381 0.00109999 5.96046e-008 2.5498 19.0078 -0.00640181 -28.5227 0 0 -15.7462 -1.68564 2.85455 
-40.9062 92.8097 108.855 -3.05361 5.40162 -4.36482 9.63379 -0.250344 -7.15256e-007 6.21118 -31.6131 2.65152 0 -40.4779 -1.71313 4.30553 9.24243 -0.453726 0.0126047 -40.4416 -0.864524 0.145565 -9.98833 0.000324942 -0.183287 -12.1867 8.28226 1.22054e-011 -1.16919e-011 -1.75726e-013 -9.63379 -0.250344 -7.15256e-007 5.44595 -7.71603 9.5353 0 -40.478 -1.71313 10.3859 15.565 -1.31662 -0.0126047 -40.4414 -0.864524 -0.00796065 -4.16892 0.00212958 0.183287 -12.1867 8.28226 6.1401e-012 -2.95501e-011 2.02213e-011 -2.64698e-023 5.60909 -1.89659 2.2753 -0.612176 0.481793 0 6.56349 1.09934 -0.608023 -0.980427 -0.61725 0 7.57662 1.04304 -0.606246 -0.979414 -0.62053 0 8.29213 0.399731 -0.604526 -0.978341 -0.623823 0 8.9581 -0.526302 -0.602864 -0.977209 -0.627128 0 18.4163 -4.35419 -1.54275 12.21 1.77532 1.05879e-022 8.97127 1.78542 3.78108 -0.920756 0.36497 6.14423 15.3316 -3.79324 -30.5254 1.64357 -0.987665 9.01906 -1.11411 -1.79347 -49.8336 -2.81658 -18.79 27.687 0 0 7.66566 31.0998 -1.628e-010 27.8738 0 0 5.31764 -0.839679 -7.46637 -6.14423 15.3316 -3.79324 37.2972 2.82445 2.99356 -9.01884 -1.11411 -1.79347 38.6692 19.0823 16.0563 -27.0381 0.00109999 5.96046e-008 2.53603 19.0217 -0.00213403 -28.5227 0 0 -15.7493 -1.68795 2.87085 
-40.8543 92.766 109.215 -3.05843 5.46451 -4.67474 9.63379 -0.250344 -7.15256e-007 6.21969 -31.7225 2.70405 0 -40.4779 -1.71313 4.21262 9.48419 -0.448867 0.0126047 -40.4416 -0.864524 0.142317 -10.1907 0.000368777 -0.183287 -12.1867 8.28226 1.22054e-011 -1.16919e-011 -1.75726e-013 -9.63379 -0.250344 -7.15256e-007 5.38895 -7.62302 9.52746 0 -40.478 -1.71313 10.3909 15.7389 -1.32837 -0.0126047 -40.4414 -0.864524 -0.0144247 -4.19693 0.00217913 0.183287 -12.1867 8.28226 6.1401e-012 -2.95501e-011 2.02213e-011 -2.64698e-023 5.60909 -1.89659 2.31139 -0.623091 0.492864 0 6.56349 1.09934 -0.602515 -0.998715 -0.613785 0 7.57662 1.04304 -0.600716 -0.997695 -0.617125 0 8.29213 0.399731 -0.598976 -0.996615 -0.620478 0 8.9581 -0.526302 -0.597297 -0.995476 -0.623844 0 18.4163 -4.35419 -1.46008 12.1131 1.73887 1.05879e-022 8.97127 1.78542 3.7544 -0.891635 0.366755 6.14423 15.3316 -3.79324 -30.5006 1.63186 -0.958754 9.01906 -1.11411 -1.79347 -49.8814 -2.84173 -18.7274 27.687 0 0 7.67685 31.1469 -1.62881e-010 27.8738 0 0 5.32794 -0.833837 -7.44165 -6.14423 15.3316 -3.79324 37.291 2.81899 2.98195 -9.01884 -1.11411 -1.79347 38.716 18.9214 15.8208 -27.0381 0.00109999 5.96046e-008 2.52229 19.0571 1.33377e-007 -28.5227 0 0 -15.7638 -1.6918 2.88465 
-40.7998 92.725 109.577 -3.0571 5.52317 -4.99915 9.63379 -0.250344 -7.15256e-007 6.21577 -31.7608 2.75113 0 -40.4779 -1.71313 4.12854 9.64819 -0.445013 0.0126047 -40.4416 -0.864524 0.14043 -10.3299 0.000412321 -0.183287 -12.1867 8.28226 1.22054e-011 -1.16919e-011 -1.75726e-013 -9.63379 -0.250344 -7.15256e-007 5.31889 -7.53016 9.48733 0 -40.478 -1.71313 10.3852 15.9222 -1.34485 -0.0126047 -40.4414 -0.864524 -0.0206355 -4.20872 0.00222972 0.183287 -12.1867 8.28226 6.1401e-012 -2.95501e-011 2.02213e-011 -2.64698e-023 5.60909 -1.89659 2.33956 -0.631744 0.50048 0 6.56349 1.09934 -0.594743 -1.01367 -0.607651 0 7.57662 1.04304 -0.592942 -1.01265 -0.611023 0 8.29213 0.399731 -0.591201 -1.01158 -0.614409 0 8.9581 -0.526302 -0.589521 -1.01044 -0.617808 0 18.4163 -4.35419 -1.37291 11.9821 1.70565 1.05879e-022 8.97127 1.78542 3.70835 -0.823691 0.376628 6.14423 15.3316 -3.79324 -30.4892 1.62195 -0.933096 9.01906 -1.11411 -1.79347 -49.9214 -2.86002 -18.6758 27.687 0 0 7.68041 31.2168 -1.63001e-010 27.8738 0 0 5.35587 -0.822408 -7.41588 -6.14423 15.3316 -3.79324 37.2629 2.81024 2.96614 -9.01884 -1.11411 -1.79347 38.7746 18.755 15.6061 -27.0381 0.00109999 5.96046e-008 2.50639 19.1344 1.33442e-007 -28.5227 0 0 -15.8047 -1.69991 2.89887 
-40.7428 92.6869 109.944 -3.0479 5.57852 -5.33644 9.63379 -0.250344 -7.15256e-007 6.20067 -31.7321 2.79775 0 -40.4779 -1.71313 4.04611 9.74275 -0.441666 0.0126047 -40.4416 -0.864524 0.139447 -10.4106 0.000455559 -0.183287 -12.1867 8.28226 1.22054e-011 -1.16919e-011 -1.75726e-013 -9.63379 -0.250344 -7.15256e-007 5.23425 -7.43438 9.42147 0 -40.478 -1.71313 10.3717 16.108 -1.36545 -0.0126047 -40.4414 -0.864524 -0.0266328 -4.20644 0.00228134 0.183287 -12.1867 8.28226 6.1401e-012 -2.95501e-011 2.02213e-011 -2.64698e-023 5.60909 -1.89659 2.36027 -0.638674 0.505288 0 6.56349 1.09934 -0.585945 -1.02624 -0.598724 0 7.57662 1.04304 -0.584159 -1.02523 -0.602107 0 8.29213 0.399731 -0.582433 -1.02417 -0.605505 0 8.9581 -0.526302 -0.580769 -1.02305 -0.608916 0 18.4163 -4.35419 -1.2764 11.8237 1.67222 1.05879e-022 8.97127 1.78542 3.64489 -0.722986 0.392791 6.14423 15.3316 -3.79324 -30.4856 1.61327 -0.909791 9.01906 -1.11411 -1.79347 -49.9576 -2.87196 -18.634 27.687 0 0 7.67798 31.3061 -1.63155e-010 27.8738 0 0 5.39578 -0.807309 -7.39064 -6.14423 15.3316 -3.79324 37.2184 2.79898 2.94706 -9.01884 -1.11411 -1.79347 38.8446 18.5805 15.4054 -27.0381 0.00109999 5.96046e-008 2.4875 19.2544 1.33543e-007 -28.5227 0 0 -15.874 -1.71252 2.91297 
-40.6833 92.652 110.313 -3.0314 5.63219 -5.68606 9.63379 -0.250344 -7.15256e-007 6.17252 -31.6372 2.84032 0 -40.4779 -1.71313 3.96889 9.76497 -0.439075 0.0126047 -40.4416 -0.864524 0.139362 -10.4305 0.000498471 -0.183287 -12.1867 8.28226 1.22054e-011 -1.16919e-011 -1.75726e-013 -9.63379 -0.250344 -7.15256e-007 5.13651 -7.33324 9.34904 0 -40.478 -1.71313 10.3553 16.2863 -1.39102 -0.0126047 -40.4414 -0.864524 -0.0318486 -4.19121 0.00233395 0.183287 -12.1867 8.28226 6.1401e-012 -2.95501e-011 2.02213e-011 -2.64698e-023 5.60909 -1.89659 2.37309 -0.644451 0.506688 0 6.56349 1.09934 -0.576185 -1.03756 -0.588374 0 7.57662 1.04304 -0.574426 -1.03657 -0.591749 0 8.29213 0.399731 -0.572727 -1.03553 -0.59514 0 8.9581 -0.526302 -0.571091 -1.03443 -0.598544 0 18.4163 -4.35419 -1.1807 11.6544 1.64334 1.05879e-022 8.97127 1.78542 3.5775 -0.614147 0.413809 6.14423 15.3316 -3.79324 -30.4886 1.60533 -0.887706 9.01906 -1.11411 -1.79347 -49.9896 -2.88056 -18.5959 27.687 0 0 7.67278 31.3961 -1.63312e-010 27.8738 0 0 5.43853 -0.791226 -7.36456 -6.14423 15.3316 -3.79324 37.1666 2.78685 2.9271 -9.01884 -1.11411 -1.79347 38.9124 18.4095 15.2169 -27.0381 0.00109999 5.96046e-008 2.46891 19.3871 1.33655e-007 -28.5227 0 0 -15.9492 -1.72555 2.92256 
-40.6211 92.6207 110.685 -3.00812 5.68581 -6.04748 9.63379 -0.250344 -7.15256e-007 6.12953 -31.4771 2.8753 0 -40.4779 -1.71313 3.90041 9.71201 -0.43749 0.0126047 -40.4416 -0.864524 0.140172 -10.3875 0.000541033 -0.183287 -12.1867 8.28226 1.22054e-011 -1.16919e-011 -1.75726e-013 -9.63379 -0.250344 -7.15256e-007 5.02704 -7.22432 9.28916 0 -40.478 -1.71313 10.3411 16.4469 -1.42239 -0.0126047 -40.4414 -0.864524 -0.0357147 -4.16413 0.00238751 0.183287 -12.1867 8.28226 6.1401e-012 -2.95501e-011 2.02213e-011 -2.64698e-023 5.60909 -1.89659 2.37757 -0.649645 0.504078 0 6.56349 1.09934 -0.565526 -1.04878 -0.577969 0 7.57662 1.04304 -0.563802 -1.04782 -0.581321 0 8.29213 0.399731 -0.56214 -1.04679 -0.584688 0 8.9581 -0.526302 -0.560539 -1.04572 -0.588069 0 18.4163 -4.35419 -1.09588 11.4908 1.62375 1.05879e-022 8.97127 1.78542 3.51965 -0.521799 0.438249 6.14423 15.3316 -3.79324 -30.4969 1.59765 -0.865707 9.01906 -1.11411 -1.79347 -50.0172 -2.88888 -18.5554 27.687 0 0 7.66806 31.468 -1.63437e-010 27.8738 0 0 5.47502 -0.776844 -7.33626 -6.14423 15.3316 -3.79324 37.1166 2.77551 2.90865 -9.01884 -1.11411 -1.79347 38.9648 18.2538 15.0389 -27.0381 0.00109999 5.96046e-008 2.45387 19.5023 1.33754e-007 -28.5227 0 0 -16.0074 -1.73488 2.92326 
